<?xml version="1.0" standalone="no"?>
<!DOCTYPE svg PUBLIC "-//W3C//DTD SVG 20010904//EN"
 "http://www.w3.org/TR/2001/REC-SVG-20010904/DTD/svg10.dtd">
<svg version="1.0" xmlns="http://www.w3.org/2000/svg"
 width="512.000000pt" height="512.000000pt" viewBox="0 0 512.000000 512.000000"
 preserveAspectRatio="xMidYMid meet">
<metadata>
Created by potrace 1.14, written by Peter Selinger 2001-2017
</metadata>
<g transform="translate(0.000000,512.000000) scale(0.100000,-0.100000)"
fill="#000000" stroke="none">
<path d="M2378 5115 c-2 -1 -34 -5 -73 -9 -38 -3 -97 -10 -130 -16 -33 -6 -76
-13 -95 -16 -106 -17 -413 -105 -434 -125 -6 -5 -16 -9 -23 -9 -8 0 -49 -16
-91 -35 -352 -161 -618 -354 -877 -637 -33 -36 -71 -80 -85 -98 -14 -18 -29
-38 -35 -44 -82 -92 -246 -369 -323 -546 -61 -142 -131 -351 -146 -443 -3 -15
-7 -35 -10 -45 -3 -9 -7 -34 -11 -56 -3 -21 -7 -41 -9 -45 -4 -6 -12 -72 -26
-201 -8 -85 -5 -454 4 -515 4 -22 13 -80 21 -130 29 -174 78 -357 142 -520 37
-93 123 -273 161 -335 12 -19 29 -48 38 -65 34 -61 149 -223 218 -305 155
-185 409 -412 568 -505 9 -5 48 -29 85 -52 281 -171 660 -303 973 -339 30 -3
76 -10 103 -14 48 -7 471 -5 517 4 14 2 45 7 70 10 25 4 92 16 150 27 58 12
115 23 128 25 38 7 320 103 370 125 481 216 859 531 1135 945 193 291 337 655
393 994 38 235 40 573 5 805 -82 539 -335 1035 -728 1430 -77 77 -163 154
-207 185 -12 8 -30 23 -41 33 -20 19 -212 147 -275 184 -49 29 -276 143 -285
143 -4 0 -21 6 -38 14 -99 45 -376 126 -487 141 -24 4 -47 8 -50 10 -3 1 -30
6 -61 9 -31 4 -67 9 -80 12 -25 6 -455 14 -461 9z"/>
</g>
</svg>
